<?xml version="1.0" standalone="no"?>
<!DOCTYPE svg PUBLIC "-//W3C//DTD SVG 20010904//EN"
 "http://www.w3.org/TR/2001/REC-SVG-20010904/DTD/svg10.dtd">
<svg version="1.0" xmlns="http://www.w3.org/2000/svg"
 width="187.000000pt" height="187.000000pt" viewBox="0 0 187.000000 187.000000"
 preserveAspectRatio="xMidYMid meet">
<metadata>
Created by potrace 1.11, written by Peter Selinger 2001-2013
</metadata>
<g transform="translate(0.000000,187.000000) scale(0.100000,-0.100000)"
fill="#000000" stroke="none">
<path d="M1218 1335 c-2 -1 -32 -6 -66 -9 -169 -18 -326 -54 -481 -112 -66
-24 -97 -32 -105 -24 -14 14 -61 13 -73 -2 -6 -7 -15 -26 -20 -43 -9 -29 -31
-35 -25 -7 2 8 -4 24 -13 38 -20 31 -68 33 -89 3 l-14 -21 -29 21 c-32 24 -96
32 -136 19 -59 -21 -85 -92 -52 -142 14 -21 14 -25 0 -36 -10 -9 -15 -26 -13
-46 2 -24 -5 -41 -23 -61 -60 -65 -100 -173 -65 -173 9 0 16 5 16 11 0 5 -5 7
-10 4 -6 -4 -8 3 -6 17 3 13 5 30 5 38 1 13 3 13 10 1 5 -8 7 -21 4 -30 -4
-13 -3 -14 5 -2 6 8 7 22 3 30 -5 9 -6 21 -4 28 5 13 33 6 33 -9 0 -5 -4 -7
-10 -3 -5 3 -7 -9 -5 -30 3 -22 1 -35 -6 -35 -8 0 -8 -5 1 -15 7 -8 9 -15 4
-15 -4 0 1 -7 12 -15 10 -8 15 -15 9 -15 -17 -1 78 -56 109 -64 24 -6 27 -9
15 -17 -10 -7 -6 -8 13 -3 15 3 33 2 40 -2 21 -13 91 -17 83 -4 -3 5 -11 8
-16 5 -5 -4 -9 3 -9 14 0 12 5 21 11 21 5 0 7 -5 3 -12 -4 -6 -3 -8 3 -5 14 9
24 -18 16 -40 -5 -12 -3 -14 8 -7 20 12 39 14 39 3 0 -5 5 -9 11 -9 6 0 9 6 6
13 -2 6 -12 11 -21 11 -23 -2 -20 11 6 23 19 8 20 10 4 16 -11 5 -15 3 -10 -4
4 -7 1 -10 -7 -7 -8 3 -13 10 -12 16 2 6 -6 9 -17 7 -12 -2 -18 0 -15 5 3 6
-2 7 -12 4 -15 -5 -16 -4 -3 5 14 10 8 13 -16 10 -4 0 -10 5 -14 11 -11 18
-30 3 -23 -17 4 -11 3 -14 -6 -9 -7 5 -10 15 -7 23 3 8 1 11 -4 8 -6 -4 -7 1
-3 11 5 14 3 16 -11 11 -11 -5 -15 -3 -10 5 5 7 3 8 -6 3 -9 -5 -11 -4 -6 4 9
14 -15 11 -27 -4 -5 -6 -6 -2 -3 8 3 10 2 15 -4 12 -5 -3 -7 3 -5 13 2 15 -2
18 -25 17 -20 -1 -27 2 -23 12 4 10 9 11 19 2 8 -7 17 -9 21 -5 3 3 1 6 -5 6
-6 0 -9 11 -6 28 2 15 1 23 -3 17 -12 -16 -35 -17 -45 -3 -6 9 -8 7 -6 -7 2
-13 -3 -20 -17 -22 -11 -1 -14 0 -7 3 6 3 10 9 7 13 -6 11 53 66 62 58 3 -4
-2 -17 -13 -28 -19 -22 -19 -22 3 -11 12 7 23 17 26 24 5 12 6 3 8 -52 0 -25
19 -37 20 -13 1 10 1 21 0 25 0 4 7 4 16 1 11 -4 14 -3 9 5 -4 7 -14 12 -22
12 -8 0 -14 4 -14 10 0 6 10 5 25 -2 24 -11 28 -30 11 -57 -7 -11 -5 -13 8 -8
10 4 15 3 11 -3 -3 -6 -2 -10 3 -10 5 0 15 -11 22 -25 7 -13 18 -22 23 -18 6
3 7 1 3 -5 -4 -6 8 -18 29 -28 19 -9 35 -21 35 -27 0 -6 3 -8 6 -4 4 3 19 0
35 -9 16 -8 29 -11 29 -7 0 4 5 2 11 -4 6 -6 18 -9 25 -6 8 3 14 0 14 -7 0 -6
5 -8 12 -4 8 5 9 2 5 -9 -3 -9 -2 -19 4 -22 5 -4 6 -11 3 -17 -4 -7 -2 -8 4
-4 7 4 12 2 12 -4 0 -6 5 -8 10 -5 6 3 10 1 10 -6 0 -7 3 -9 7 -5 5 4 -1 14
-11 22 -11 8 -21 24 -22 36 -2 13 -1 18 2 12 3 -7 19 -10 42 -7 43 6 41 -3 -3
-11 -17 -2 -32 -5 -35 -5 -3 -1 2 -5 10 -11 9 -5 19 -5 25 0 8 7 12 0 12 -21
0 -27 -3 -30 -24 -26 -12 2 -23 0 -23 -5 0 -4 27 -7 60 -6 33 1 60 5 60 9 0 3
18 5 40 3 22 -1 40 1 40 4 0 4 15 7 32 6 18 -1 47 3 63 8 17 4 45 10 64 13 53
7 72 15 65 28 -5 9 -4 9 5 1 10 -9 28 -7 74 8 34 10 69 21 78 23 8 1 42 14 75
28 105 44 157 57 172 41 26 -28 77 -9 84 31 2 13 23 29 61 47 32 15 91 49 130
75 70 47 74 48 150 49 85 2 95 7 102 47 4 19 -1 31 -20 45 -14 11 -21 22 -15
24 15 5 20 39 9 59 -6 11 -4 21 6 29 36 30 6 90 -45 90 -18 0 -39 10 -55 26
-64 64 -213 104 -402 109 -67 1 -123 1 -125 0z m58 -82 c-8 -8 -66 -10 -66 -2
0 4 10 9 23 11 24 4 51 -2 43 -9z m212 4 c26 -1 25 1 11 -31 -7 -14 -16 -23
-21 -20 -5 3 -4 12 2 19 10 11 8 13 -9 10 -12 -2 -21 1 -21 6 0 6 -6 9 -12 7
-19 -7 -15 -33 4 -33 10 0 17 -5 15 -10 -1 -6 -6 -8 -12 -6 -5 2 -14 4 -20 5
-5 1 -20 7 -31 14 -12 6 -25 8 -29 4 -5 -4 -5 1 -2 10 3 10 1 20 -5 24 -7 5
-8 2 -3 -6 5 -9 4 -11 -3 -6 -8 5 -10 2 -6 -8 8 -21 -10 -21 -26 -1 -11 13
-15 13 -21 3 -6 -9 -9 -7 -9 7 0 19 5 20 88 17 48 -2 97 -4 110 -5z m133 -38
c3 -6 9 -10 13 -9 3 0 14 -4 24 -9 10 -6 12 -11 4 -11 -7 0 -17 -10 -22 -22
-7 -18 -9 -19 -9 -5 -1 9 -12 22 -26 29 -13 6 -21 16 -18 22 5 8 3 8 -8 0 -8
-6 -26 -10 -41 -9 -16 1 -28 -2 -28 -6 0 -5 -9 -13 -20 -19 -16 -9 -20 -8 -20
5 0 8 5 14 11 13 6 -2 16 6 22 17 7 11 16 23 21 26 11 9 89 -10 97 -22z m-571
15 c0 -8 -19 -13 -24 -6 -3 5 1 9 9 9 8 0 15 -2 15 -3z m94 -4 c-8 -7 -63 -7
-58 1 2 4 17 6 33 5 16 0 27 -3 25 -6z m27 -3 c-6 -8 -7 -18 -3 -22 4 -5 1 -5
-6 -1 -10 6 -10 11 -1 22 6 8 14 14 16 14 3 0 0 -6 -6 -13z m37 -12 c-3 -3 -9
2 -12 12 -6 14 -5 15 5 6 7 -7 10 -15 7 -18z m23 -2 c-12 -20 -14 -14 -5 12 4
9 9 14 11 11 3 -2 0 -13 -6 -23z m214 17 c3 -5 1 -10 -4 -10 -6 0 -11 5 -11
10 0 6 2 10 4 10 3 0 8 -4 11 -10z m-157 -25 c-3 -3 -9 2 -12 12 -6 14 -5 15
5 6 7 -7 10 -15 7 -18z m-23 5 c3 -5 1 -10 -4 -10 -6 0 -11 5 -11 10 0 6 2 10
4 10 3 0 8 -4 11 -10z m65 -10 c-8 -5 -19 -10 -25 -10 -5 0 -3 5 5 10 8 5 20
10 25 10 6 0 3 -5 -5 -10z m147 -55 c0 -8 -4 -12 -9 -9 -5 3 -6 10 -3 15 9 13
12 11 12 -6z m-1347 -240 c0 -8 -5 -17 -11 -21 -8 -4 -9 1 -4 17 7 21 6 22 -8
10 -9 -7 -14 -17 -11 -22 9 -15 -15 -49 -31 -43 -22 9 -19 20 17 53 32 30 48
32 48 6z m60 -29 c0 -6 -5 -4 -10 4 -5 8 -10 11 -10 7 0 -5 -5 -5 -10 -2 -6 4
-8 11 -4 16 7 12 34 -8 34 -25z m-45 -66 c4 -6 3 -10 -2 -9 -21 4 -31 -3 -29
-18 2 -11 12 -18 25 -19 12 -1 25 -5 29 -9 4 -5 -2 -5 -13 -1 -11 4 -16 4 -12
0 4 -4 1 -14 -6 -22 -9 -13 -9 -14 1 -8 11 7 17 -5 13 -28 -2 -12 19 -36 32
-36 6 0 2 6 -9 14 -10 8 -16 17 -13 20 3 3 15 -3 26 -14 19 -17 22 -17 27 -3
4 9 2 21 -4 27 -8 8 -9 6 -4 -7 5 -13 2 -16 -9 -11 -9 3 -13 12 -10 20 6 16
19 18 28 4 4 -6 10 -8 15 -5 9 6 7 -14 -5 -50 -6 -18 -5 -18 5 -2 6 9 16 15
22 11 6 -4 5 -10 -3 -15 -8 -5 -9 -9 -3 -9 18 0 37 28 28 42 -6 10 -5 11 8 1
8 -7 17 -11 20 -8 2 3 5 -2 5 -10 0 -10 -6 -14 -16 -10 -13 5 -14 4 -3 -6 6
-7 12 -20 12 -28 0 -11 -4 -10 -16 5 -8 10 -13 14 -9 7 10 -20 -55 -4 -130 33
-51 25 -75 58 -75 102 0 19 4 22 21 17 14 -5 19 -3 15 3 -4 6 2 15 11 21 22
13 21 13 28 1z m202 -5 c0 -8 -4 -12 -9 -9 -5 3 -6 10 -3 15 9 13 12 11 12 -6z
m18 -43 c-3 -3 -11 0 -18 7 -9 10 -8 11 6 5 10 -3 15 -9 12 -12z m-191 -38
c10 -25 -1 -29 -14 -5 -6 12 -7 21 -1 21 5 0 12 -7 15 -16z m186 -89 c7 -9 8
-15 2 -15 -5 0 -12 7 -16 15 -3 8 -4 15 -2 15 2 0 9 -7 16 -15z m486 -43 c-17
-16 -18 -16 -5 5 7 12 15 20 18 17 3 -2 -3 -12 -13 -22z m131 22 c-3 -3 -12
-4 -19 -1 -8 3 -5 6 6 6 11 1 17 -2 13 -5z m-268 -11 c-4 -22 3 -25 16 -7 13
16 14 16 9 2 -3 -10 -1 -18 5 -18 6 0 11 7 11 15 0 8 5 15 11 15 5 0 8 -4 4
-9 -3 -5 -1 -12 5 -16 5 -3 10 2 11 12 0 16 1 16 8 -1 7 -18 8 -18 14 -3 3 9
12 17 19 16 10 0 10 -2 1 -6 -7 -2 -13 -11 -13 -19 0 -10 -8 -13 -31 -9 -17 3
-28 2 -25 -3 3 -5 -5 -8 -17 -8 -12 1 -26 0 -31 -3 -5 -2 -26 -6 -45 -7 -20
-2 -48 -5 -63 -7 -28 -5 -45 14 -31 36 9 14 75 18 67 5 -3 -5 -10 -5 -16 -2
-6 4 -8 2 -4 -4 4 -7 -2 -9 -20 -6 -17 3 -23 1 -19 -6 4 -6 14 -9 22 -6 9 4
12 2 7 -7 -4 -6 2 -4 13 6 13 11 30 16 47 13 14 -2 28 -1 31 4 3 5 -3 7 -15 5
-11 -2 -22 0 -25 5 -3 5 4 7 15 5 11 -2 20 0 20 6 0 5 5 9 10 9 6 0 9 -3 9 -7z
m175 -8 c-4 -8 -8 -15 -10 -15 -2 0 -4 7 -4 15 0 8 4 15 10 15 5 0 7 -7 4 -15z"/>
<path d="M1325 1251 c-3 -5 -2 -12 3 -15 5 -3 9 1 9 9 0 17 -3 19 -12 6z"/>
<path d="M1383 1245 c0 -8 3 -13 5 -10 3 3 11 -3 19 -13 13 -15 13 -15 3 5
-13 28 -27 37 -27 18z"/>
<path d="M1540 1226 c0 -2 7 -7 16 -10 8 -3 12 -2 9 4 -6 10 -25 14 -25 6z"/>
<path d="M71 876 c-9 -11 -9 -16 1 -22 7 -4 10 -4 6 1 -4 4 -3 14 3 22 6 7 9
13 6 13 -2 0 -10 -6 -16 -14z"/>
<path d="M96 755 c10 -8 23 -15 28 -15 6 0 1 7 -10 15 -10 8 -23 15 -28 15 -6
0 -1 -7 10 -15z"/>
<path d="M111 714 c0 -11 3 -14 6 -6 3 7 2 16 -1 19 -3 4 -6 -2 -5 -13z"/>
<path d="M119 853 c-13 -16 -12 -17 4 -4 9 7 17 15 17 17 0 8 -8 3 -21 -13z"/>
<path d="M200 799 c0 -5 5 -7 10 -4 6 3 10 8 10 11 0 2 -4 4 -10 4 -5 0 -10
-5 -10 -11z"/>
<path d="M186 771 c-6 -10 18 -34 26 -26 3 3 17 -6 31 -19 37 -34 34 -12 -2
25 -30 30 -46 36 -55 20z"/>
<path d="M10 720 c0 -24 30 -66 62 -88 l33 -23 -31 28 c-36 32 -58 69 -49 83
3 6 1 10 -4 10 -6 0 -11 -5 -11 -10z"/>
<path d="M90 656 c0 -2 7 -7 16 -10 8 -3 12 -2 9 4 -6 10 -25 14 -25 6z"/>
<path d="M416 624 c-8 -20 29 -61 38 -41 3 9 7 8 15 -3 9 -13 11 -13 11 1 0 8
-7 24 -16 35 -13 16 -15 16 -10 2 3 -10 0 -20 -6 -24 -7 -5 -8 -2 -3 6 6 9 4
11 -5 5 -8 -5 -11 -4 -7 1 3 6 2 16 -2 23 -6 10 -10 9 -15 -5z"/>
<path d="M110 604 c0 -2 9 -8 20 -14 11 -6 20 -7 20 -2 0 6 -9 12 -20 15 -11
3 -20 3 -20 1z"/>
<path d="M167 579 c7 -7 15 -10 18 -7 3 3 -2 9 -12 12 -14 6 -15 5 -6 -5z"/>
<path d="M200 570 c0 -5 5 -10 11 -10 5 0 7 5 4 10 -3 6 -8 10 -11 10 -2 0 -4
-4 -4 -10z"/>
<path d="M415 571 c-3 -5 -2 -12 3 -15 5 -3 9 1 9 9 0 17 -3 19 -12 6z"/>
<path d="M264 553 c10 -10 46 -14 46 -5 0 4 -12 9 -27 10 -14 1 -23 -1 -19 -5z"/>
<path d="M350 549 c0 -5 -6 -7 -12 -3 -7 4 -10 3 -5 -1 4 -5 16 -9 27 -10 15
-1 17 1 9 12 -14 16 -19 17 -19 2z"/>
<path d="M390 538 c0 -4 14 -8 30 -8 17 0 30 2 30 4 0 2 -13 6 -30 8 -16 3
-30 1 -30 -4z"/>
<path d="M468 533 c6 -2 18 -2 25 0 6 3 1 5 -13 5 -14 0 -19 -2 -12 -5z"/>
</g>
</svg>
